<?xml version="1.0" encoding="UTF-8"?>
<svg xmlns="http://www.w3.org/2000/svg" width="448" height="448" viewBox="99 129 448 448" role="img" aria-label="rentalOS" shape-rendering="geometricPrecision" text-rendering="geometricPrecision"><title>rentalOS</title><defs><linearGradient id="rentalos-icon-gradient" x1="0%" y1="0%" x2="100%" y2="100%"><stop offset="0%" stop-color="#6854FF"/><stop offset="48%" stop-color="#0645F4"/><stop offset="100%" stop-color="#149CFF"/></linearGradient></defs><g id="rentalos-icon" fill="url(#rentalos-icon-gradient)" fill-rule="evenodd" shape-rendering="geometricPrecision">
    <path d="M 311.000 145.438 C 308.677 145.603 306.357 145.811 304.036 145.999 C 301.714 146.186 299.388 146.320 297.072 146.562 C 294.756 146.804 292.438 147.085 290.138 147.450 C 287.838 147.815 285.552 148.281 283.270 148.751 C 280.988 149.221 278.715 149.737 276.447 150.272 C 274.179 150.807 271.919 151.378 269.663 151.961 C 267.407 152.544 265.145 153.110 262.911 153.769 C 260.677 154.428 258.471 155.186 256.258 155.915 C 254.045 156.644 251.822 157.350 249.632 158.143 C 247.442 158.936 245.270 159.785 243.117 160.673 C 240.963 161.561 238.825 162.493 236.710 163.470 C 234.596 164.448 232.514 165.498 230.428 166.537 C 228.342 167.575 226.247 168.600 224.194 169.700 C 222.141 170.801 220.123 171.969 218.110 173.141 C 216.097 174.314 214.102 175.520 212.113 176.735 C 210.125 177.950 208.127 179.151 206.180 180.431 C 204.234 181.711 202.324 183.050 200.435 184.413 C 198.546 185.776 196.676 187.170 194.844 188.609 C 193.012 190.048 191.237 191.560 189.444 193.048 C 187.650 194.535 185.844 196.010 184.083 197.535 C 182.322 199.060 180.573 200.602 178.877 202.198 C 177.180 203.794 175.536 205.449 173.902 207.110 C 172.268 208.771 170.641 210.441 169.072 212.163 C 167.503 213.885 165.994 215.663 164.488 217.441 C 162.983 219.219 161.493 221.012 160.037 222.831 C 158.581 224.650 157.149 226.490 155.754 228.356 C 154.359 230.222 152.996 232.113 151.667 234.026 C 150.338 235.940 149.053 237.885 147.781 239.837 C 146.510 241.790 145.243 243.747 144.039 245.741 C 142.834 247.735 141.681 249.763 140.553 251.801 C 139.425 253.840 138.335 255.900 137.271 257.972 C 136.206 260.045 135.151 262.125 134.166 264.236 C 133.181 266.347 132.245 268.483 131.363 270.639 C 130.482 272.795 129.697 274.991 128.878 277.173 C 128.060 279.355 127.225 281.531 126.453 283.729 C 125.681 285.927 124.928 288.135 124.245 290.362 C 123.563 292.589 122.955 294.840 122.358 297.092 C 121.760 299.344 121.205 301.608 120.659 303.873 C 120.113 306.139 119.554 308.402 119.083 310.684 C 118.612 312.965 118.198 315.261 117.832 317.561 C 117.465 319.862 117.178 322.175 116.886 324.487 C 116.595 326.798 116.331 329.114 116.082 331.430 C 115.833 333.747 115.571 336.064 115.392 338.386 C 115.213 340.707 115.068 343.033 115.007 345.361 C 114.947 347.689 114.930 350.026 115.028 352.352 C 115.127 354.677 115.430 356.992 115.600 359.314 C 115.769 361.637 115.856 363.967 116.045 366.288 C 116.234 368.609 116.468 370.927 116.732 373.242 C 116.996 375.556 117.265 377.874 117.630 380.174 C 117.995 382.474 118.435 384.765 118.919 387.043 C 119.403 389.322 119.986 391.580 120.532 393.845 C 121.079 396.110 121.596 398.383 122.200 400.634 C 122.803 402.884 123.463 405.120 124.152 407.346 C 124.840 409.572 125.580 411.783 126.332 413.988 C 127.084 416.193 127.846 418.396 128.664 420.578 C 129.481 422.759 130.343 424.926 131.238 427.077 C 132.133 429.228 133.050 431.372 134.033 433.484 C 135.015 435.596 136.068 437.677 137.131 439.750 C 138.194 441.824 139.270 443.892 140.409 445.924 C 141.549 447.956 142.762 449.947 143.968 451.941 C 145.173 453.936 146.380 455.930 147.640 457.889 C 148.901 459.848 150.198 461.787 151.531 463.697 C 152.865 465.607 154.255 467.479 155.643 469.350 C 157.031 471.222 158.409 473.104 159.861 474.925 C 161.312 476.747 162.830 478.516 164.354 480.278 C 165.878 482.041 167.442 483.769 169.002 485.500 C 170.563 487.230 172.108 488.975 173.716 490.661 C 175.324 492.347 176.971 493.998 178.650 495.614 C 180.328 497.230 182.037 498.815 183.785 500.355 C 185.534 501.894 187.334 503.377 189.138 504.851 C 190.942 506.326 192.758 507.789 194.611 509.200 C 196.464 510.612 198.361 511.968 200.258 513.321 C 202.155 514.674 204.066 516.009 205.994 517.317 C 207.922 518.624 209.856 519.929 211.828 521.168 C 213.801 522.407 215.812 523.587 217.829 524.752 C 219.846 525.918 221.876 527.066 223.931 528.162 C 225.987 529.259 228.078 530.291 230.163 531.331 C 232.248 532.371 234.323 533.437 236.442 534.403 C 238.561 535.369 240.716 536.263 242.879 537.128 C 245.042 537.992 247.236 538.782 249.421 539.591 C 251.607 540.399 253.782 541.242 255.991 541.979 C 258.201 542.716 260.435 543.387 262.678 544.013 C 264.922 544.640 267.192 545.175 269.453 545.738 C 271.714 546.301 273.970 546.893 276.246 547.389 C 278.521 547.886 280.810 548.333 283.108 548.718 C 285.405 549.104 287.719 549.396 290.029 549.702 C 292.339 550.008 294.650 550.318 296.967 550.555 C 299.285 550.791 301.614 550.906 303.933 551.122 C 306.253 551.339 308.561 551.708 310.885 551.855 C 313.208 552.001 315.543 551.975 317.872 551.999 C 320.202 552.023 322.534 552.033 324.863 551.999 C 327.193 551.965 329.528 551.967 331.849 551.795 C 334.170 551.623 336.477 551.251 338.790 550.967 C 341.103 550.682 343.417 550.405 345.725 550.088 C 348.033 549.771 350.340 549.441 352.638 549.064 C 354.937 548.687 357.229 548.256 359.518 547.824 C 361.808 547.392 364.103 546.981 366.377 546.474 C 368.650 545.968 370.916 545.411 373.160 544.785 C 375.403 544.159 377.620 543.435 379.837 542.718 C 382.054 542.000 384.264 541.259 386.460 540.481 C 388.656 539.703 390.842 538.891 393.014 538.049 C 395.186 537.206 397.365 536.373 399.492 535.425 C 401.619 534.477 403.686 533.393 405.776 532.362 C 407.865 531.330 409.948 530.286 412.028 529.235 C 414.109 528.185 416.208 527.169 418.257 526.061 C 420.305 524.952 422.327 523.789 424.321 522.586 C 426.316 521.382 428.273 520.114 430.223 518.840 C 432.174 517.565 434.113 516.271 436.024 514.938 C 437.935 513.605 439.831 512.247 441.689 510.843 C 443.547 509.438 445.382 507.998 447.174 506.510 C 448.966 505.022 450.696 503.457 452.441 501.914 C 454.187 500.371 455.950 498.844 457.650 497.251 C 459.349 495.659 460.985 493.997 462.641 492.357 C 464.296 490.717 465.950 489.074 467.582 487.411 C 469.214 485.748 470.863 484.099 472.433 482.378 C 474.002 480.657 475.509 478.877 476.999 477.086 C 478.489 475.295 479.949 473.477 481.371 471.632 C 482.794 469.787 484.183 467.914 485.537 466.018 C 486.890 464.121 488.197 462.191 489.492 460.254 C 490.787 458.317 492.071 456.371 493.307 454.396 C 494.543 452.421 495.732 450.416 496.906 448.403 C 498.081 446.391 499.269 444.383 500.354 442.322 C 501.438 440.261 502.409 438.141 503.414 436.039 C 504.418 433.937 505.410 431.828 506.382 429.710 C 507.353 427.593 508.348 425.483 509.243 423.333 C 510.139 421.183 510.931 418.990 511.756 416.810 C 512.580 414.631 513.437 412.461 514.188 410.256 C 514.938 408.051 515.604 405.816 516.259 403.580 C 516.914 401.345 517.562 399.104 518.118 396.842 C 518.675 394.580 519.123 392.291 519.597 390.010 C 520.071 387.729 520.531 385.443 520.964 383.154 C 521.397 380.865 521.834 378.574 522.196 376.273 C 522.557 373.972 522.848 371.658 523.133 369.346 C 523.418 367.034 523.696 364.719 523.905 362.400 C 524.114 360.080 524.210 357.750 524.387 355.428 C 524.563 353.105 524.935 350.787 524.962 348.465 C 524.990 346.143 524.921 343.782 524.553 341.496 C 524.185 339.211 523.581 336.912 522.754 334.752 C 521.928 332.592 520.890 330.444 519.594 328.536 C 518.299 326.628 516.699 324.849 514.982 323.305 C 513.265 321.762 511.348 320.287 509.293 319.275 C 507.238 318.263 504.921 317.628 502.650 317.234 C 500.380 316.839 497.995 317.038 495.670 316.906 C 493.344 316.773 491.021 316.425 488.698 316.440 C 486.374 316.454 484.034 316.691 481.730 316.990 C 479.426 317.290 477.063 317.523 474.874 318.238 C 472.685 318.953 470.531 320.024 468.597 321.278 C 466.662 322.532 464.788 324.041 463.266 325.761 C 461.744 327.482 460.462 329.524 459.466 331.602 C 458.469 333.679 457.829 335.971 457.286 338.226 C 456.744 340.481 456.424 342.815 456.210 345.130 C 455.995 347.445 456.050 349.786 456.001 352.115 C 455.952 354.445 456.054 356.782 455.915 359.105 C 455.776 361.428 455.457 363.742 455.167 366.054 C 454.878 368.365 454.597 370.682 454.180 372.972 C 453.763 375.263 453.229 377.536 452.664 379.796 C 452.099 382.055 451.465 384.300 450.789 386.529 C 450.113 388.758 449.371 390.970 448.606 393.170 C 447.841 395.371 447.097 397.585 446.199 399.732 C 445.302 401.879 444.246 403.963 443.220 406.055 C 442.193 408.146 441.162 410.239 440.041 412.280 C 438.919 414.321 437.706 416.313 436.490 418.301 C 435.274 420.288 434.058 422.281 432.746 424.204 C 431.434 426.128 430.056 428.011 428.618 429.843 C 427.180 431.675 425.620 433.411 424.120 435.194 C 422.620 436.978 421.146 438.784 419.620 440.544 C 418.094 442.305 416.607 444.110 414.965 445.757 C 413.323 447.405 411.530 448.905 409.769 450.430 C 408.008 451.956 406.206 453.436 404.401 454.908 C 402.595 456.381 400.800 457.871 398.935 459.265 C 397.070 460.660 395.163 462.008 393.210 463.275 C 391.256 464.542 389.237 465.714 387.214 466.868 C 385.190 468.022 383.136 469.124 381.069 470.200 C 379.003 471.276 376.925 472.337 374.815 473.324 C 372.706 474.311 370.580 475.275 368.412 476.121 C 366.243 476.967 364.011 477.656 361.803 478.399 C 359.594 479.142 357.397 479.930 355.161 480.579 C 352.925 481.228 350.664 481.808 348.387 482.292 C 346.110 482.776 343.800 483.120 341.499 483.483 C 339.197 483.847 336.893 484.224 334.579 484.474 C 332.264 484.724 329.938 484.896 327.612 484.984 C 325.286 485.071 322.952 484.997 320.621 485.000 C 318.291 485.003 315.960 485.027 313.631 484.999 C 311.301 484.972 308.964 485.009 306.644 484.835 C 304.323 484.660 302.012 484.304 299.710 483.955 C 297.407 483.605 295.108 483.208 292.827 482.737 C 290.546 482.266 288.284 481.697 286.024 481.129 C 283.765 480.562 281.496 480.013 279.269 479.332 C 277.043 478.650 274.843 477.869 272.666 477.042 C 270.489 476.214 268.340 475.305 266.208 474.367 C 264.076 473.428 261.954 472.459 259.875 471.410 C 257.795 470.362 255.763 469.216 253.730 468.077 C 251.698 466.938 249.652 465.814 247.680 464.575 C 245.709 463.337 243.781 462.021 241.902 460.645 C 240.024 459.270 238.227 457.779 236.409 456.322 C 234.590 454.865 232.778 453.399 230.992 451.903 C 229.206 450.407 227.382 448.945 225.691 447.347 C 224.000 445.748 222.439 444.012 220.847 442.312 C 219.255 440.611 217.694 438.879 216.139 437.144 C 214.585 435.409 212.963 433.725 211.519 431.901 C 210.075 430.077 208.794 428.121 207.473 426.202 C 206.152 424.283 204.871 422.335 203.593 420.387 C 202.315 418.438 200.993 416.514 199.805 414.512 C 198.618 412.509 197.506 410.455 196.468 408.371 C 195.431 406.287 194.504 404.144 193.580 402.006 C 192.656 399.868 191.735 397.723 190.923 395.541 C 190.112 393.358 189.396 391.137 188.710 388.910 C 188.024 386.684 187.380 384.442 186.807 382.184 C 186.235 379.926 185.744 377.646 185.277 375.364 C 184.810 373.082 184.366 370.791 184.005 368.490 C 183.644 366.190 183.279 363.880 183.112 361.560 C 182.945 359.241 183.019 356.901 183.000 354.571 C 182.982 352.242 182.995 349.911 183.000 347.581 C 183.005 345.250 182.926 342.915 183.030 340.590 C 183.133 338.265 183.371 335.944 183.620 333.629 C 183.869 331.314 184.137 328.994 184.523 326.698 C 184.909 324.401 185.406 322.120 185.934 319.852 C 186.463 317.584 187.061 315.329 187.696 313.087 C 188.331 310.846 189.007 308.614 189.745 306.404 C 190.484 304.195 191.293 302.007 192.125 299.831 C 192.957 297.655 193.800 295.480 194.737 293.348 C 195.674 291.216 196.682 289.110 197.748 287.040 C 198.814 284.969 199.953 282.933 201.134 280.925 C 202.314 278.918 203.560 276.945 204.831 274.992 C 206.101 273.039 207.395 271.100 208.756 269.209 C 210.116 267.319 211.513 265.447 212.993 263.650 C 214.473 261.852 216.042 260.125 217.635 258.426 C 219.228 256.726 220.898 255.097 222.550 253.454 C 224.202 251.811 225.836 250.146 227.547 248.566 C 229.258 246.986 231.020 245.457 232.818 243.976 C 234.615 242.495 236.456 241.061 238.331 239.678 C 240.205 238.296 242.117 236.959 244.065 235.681 C 246.012 234.404 248.014 233.206 250.016 232.015 C 252.019 230.823 254.040 229.660 256.078 228.533 C 258.117 227.406 260.147 226.252 262.248 225.251 C 264.350 224.250 266.524 223.396 268.686 222.528 C 270.848 221.660 273.014 220.792 275.219 220.041 C 277.423 219.291 279.671 218.665 281.913 218.028 C 284.154 217.391 286.402 216.771 288.666 216.222 C 290.929 215.672 293.205 215.156 295.494 214.730 C 297.784 214.305 300.093 213.959 302.403 213.667 C 304.713 213.375 307.039 213.208 309.357 212.979 C 311.675 212.750 313.990 212.396 316.312 212.292 C 318.634 212.189 320.965 212.236 323.287 212.356 C 325.609 212.477 327.927 212.782 330.245 213.014 C 332.562 213.247 334.884 213.447 337.193 213.751 C 339.502 214.054 341.806 214.425 344.099 214.836 C 346.392 215.247 348.682 215.694 350.952 216.215 C 353.222 216.736 355.484 217.307 357.719 217.961 C 359.954 218.616 362.168 219.356 364.361 220.141 C 366.554 220.926 368.719 221.791 370.876 222.670 C 373.034 223.549 375.162 224.501 377.305 225.416 C 379.448 226.331 381.563 227.326 383.735 228.161 C 385.906 228.997 388.077 230.058 390.334 230.429 C 392.590 230.799 395.033 230.801 397.275 230.383 C 399.517 229.965 401.756 229.011 403.786 227.922 C 405.815 226.833 407.757 225.418 409.450 223.851 C 411.143 222.283 412.541 220.369 413.944 218.516 C 415.347 216.662 416.534 214.640 417.869 212.731 C 419.204 210.822 420.600 208.955 421.955 207.059 C 423.309 205.164 424.813 203.351 425.996 201.357 C 427.179 199.363 428.432 197.290 429.053 195.095 C 429.675 192.899 429.946 190.444 429.723 188.184 C 429.501 185.923 428.753 183.562 427.718 181.529 C 426.683 179.497 425.136 177.622 423.514 175.988 C 421.892 174.354 419.899 173.047 417.986 171.724 C 416.073 170.402 414.056 169.215 412.038 168.053 C 410.019 166.892 407.968 165.778 405.875 164.756 C 403.783 163.735 401.624 162.848 399.484 161.925 C 397.345 161.003 395.195 160.100 393.038 159.221 C 390.880 158.341 388.721 157.462 386.538 156.648 C 384.355 155.835 382.160 155.044 379.939 154.342 C 377.719 153.640 375.465 153.037 373.214 152.436 C 370.963 151.835 368.698 151.284 366.434 150.735 C 364.169 150.187 361.904 149.637 359.627 149.144 C 357.350 148.651 355.068 148.155 352.771 147.779 C 350.473 147.404 348.152 147.169 345.840 146.890 C 343.527 146.611 341.210 146.350 338.893 146.107 C 336.576 145.864 334.258 145.614 331.937 145.431 C 329.615 145.248 327.291 145.079 324.964 145.009 C 322.636 144.939 320.300 144.938 317.973 145.010 C 315.645 145.081 313.323 145.273 311.000 145.438 Z M 481.000 198.481 C 478.963 198.757 476.929 199.180 474.939 199.697 C 472.949 200.215 470.948 200.787 469.059 201.585 C 467.169 202.382 465.371 203.430 463.602 204.482 C 461.834 205.533 460.093 206.660 458.448 207.893 C 456.802 209.126 455.165 210.416 453.730 211.879 C 452.295 213.342 451.024 214.994 449.839 216.672 C 448.654 218.351 447.628 220.154 446.620 221.949 C 445.611 223.744 444.578 225.548 443.787 227.442 C 442.997 229.336 442.370 231.320 441.874 233.313 C 441.378 235.306 441.087 237.362 440.811 239.401 C 440.534 241.441 440.205 243.501 440.216 245.549 C 440.228 247.597 440.559 249.658 440.879 251.689 C 441.199 253.721 441.585 255.761 442.135 257.741 C 442.685 259.721 443.370 261.681 444.176 263.571 C 444.983 265.461 445.941 267.303 446.976 269.080 C 448.010 270.858 449.155 272.586 450.385 274.235 C 451.615 275.883 452.918 277.502 454.354 278.969 C 455.790 280.437 457.375 281.781 458.999 283.042 C 460.624 284.302 462.332 285.483 464.100 286.531 C 465.868 287.579 467.715 288.532 469.608 289.328 C 471.502 290.124 473.474 290.782 475.461 291.306 C 477.448 291.830 479.492 292.199 481.530 292.470 C 483.568 292.742 485.638 292.952 487.689 292.937 C 489.741 292.922 491.807 292.687 493.840 292.381 C 495.873 292.075 497.901 291.633 499.887 291.098 C 501.873 290.563 503.857 289.952 505.756 289.170 C 507.655 288.388 509.516 287.457 511.280 286.405 C 513.044 285.353 514.724 284.131 516.337 282.857 C 517.951 281.582 519.510 280.213 520.960 278.756 C 522.410 277.298 523.774 275.734 525.037 274.112 C 526.300 272.489 527.526 270.806 528.538 269.022 C 529.550 267.238 530.377 265.327 531.110 263.407 C 531.843 261.487 532.429 259.497 532.938 257.503 C 533.446 255.509 533.864 253.478 534.160 251.444 C 534.455 249.410 534.734 247.344 534.710 245.296 C 534.685 243.248 534.327 241.190 534.012 239.156 C 533.697 237.122 533.361 235.074 532.819 233.093 C 532.277 231.112 531.560 229.163 530.759 227.270 C 529.958 225.376 529.031 223.519 528.013 221.732 C 526.996 219.945 525.891 218.187 524.654 216.547 C 523.417 214.908 522.052 213.339 520.593 211.893 C 519.133 210.448 517.532 209.125 515.897 207.877 C 514.263 206.628 512.559 205.443 510.787 204.403 C 509.014 203.363 507.166 202.408 505.264 201.637 C 503.361 200.865 501.365 200.291 499.374 199.774 C 497.383 199.257 495.353 198.822 493.318 198.533 C 491.282 198.245 489.214 198.052 487.161 198.043 C 485.108 198.035 483.037 198.206 481.000 198.481 Z"/>
  </g></svg>